PathFileType	4	(X/Y/Z)	./resultDataOpenSim/trcMotMarkerGrf/sub09/qtm-12-07.trc
DataRate	CameraRate	NumFrames	NumMarkers	Units	OrigDataRate	OrigDataStartFrame	OrigNumFrames
250.000000	250.000000	7	24	m	250.000000	414	473
Frame#	Time	L.Toe.Tip			R.Toe.Tip			L.Ankle.Lat			R.Ankle.Lat			L.Ankle.Med			R.Ankle.Med			L.Heel			R.Heel			L.Knee.Lat			R.Knee.Lat			L.Knee.Med			R.Knee.Med			L.Thigh.Upper			R.Thigh.Upper			L.ASIS			R.ASIS			V.Sacral			L.Acromium			R.Acromium			C7			L.Elbow			R.Elbow			L.Wrist.Lat			R.Wrist.Lat
		X1	Y1	Z1	X2	Y2	Z2	X3	Y3	Z3	X4	Y4	Z4	X5	Y5	Z5	X6	Y6	Z6	X7	Y7	Z7	X8	Y8	Z8	X9	Y9	Z9	X10	Y10	Z10	X11	Y11	Z11	X12	Y12	Z12	X13	Y13	Z13	X14	Y14	Z14	X15	Y15	Z15	X16	Y16	Z16	X17	Y17	Z17	X18	Y18	Z18	X19	Y19	Z19	X20	Y20	Z20	X21	Y21	Z21	X22	Y22	Z22	X23	Y23	Z23	X24	Y24	Z24

414	1.652	1.7076006	0.13209878	0.012957289	1.0230111	0.039308435	0.11344132	1.5583987	0.095065005	-0.017468886	0.87917264	0.080702402	0.1391567	1.5764571	0.12423616	0.07525015	0.9073141	0.11830731	0.051274213	1.5155078	0.03161867	0.034546142	0.81241801	0.076471191	0.083448886	1.4075451	0.48505113	-0.058514889	1.098035	0.48796479	0.21513417	1.4066657	0.47806071	0.067618542	1.0914116	0.48173651	0.087928494	1.2274418	0.85840995	-0.099809464	1.1673147	0.88466713	0.2679716	1.2916707	0.95346518	-0.036622659	1.2797262	0.96436915	0.20447571	1.115187	1.0047217	0.064474931	1.2407142	1.4096365	-0.097826839	1.2358617	1.4237329	0.23397855	1.169427	1.4629959	0.069291474	1.0849367	1.0756894	-0.15137078	1.1465556	1.0652279	0.335619	1.1975613	0.84243265	-0.20266916	1.3579248	0.88559561	0.32366497
415	1.656	1.7119486	0.12836589	0.013382648	1.0231409	0.039318582	0.11355308	1.5623453	0.092956079	-0.017234001	0.87998582	0.08217954	0.13969783	1.5807129	0.12195435	0.075580014	0.90837365	0.11954425	0.051784574	1.5187823	0.030002629	0.034758294	0.81307822	0.078746481	0.084086869	1.4150926	0.48444979	-0.058271336	1.1033518	0.48690503	0.21524407	1.4149752	0.47801147	0.067801392	1.0969209	0.48069245	0.088099767	1.2339733	0.85744409	-0.10044468	1.1731415	0.88363285	0.26746369	1.298279	0.95239409	-0.036889394	1.2859722	0.96318288	0.20428453	1.1215951	1.0034411	0.063895133	1.2462611	1.4085397	-0.098175737	1.2409441	1.4225386	0.23371742	1.1747584	1.4617753	0.068874322	1.091166	1.0742867	-0.15186262	1.1519014	1.064009	0.33507618	1.2038581	0.8411067	-0.20303833	1.3627035	0.88388154	0.32412062
416	1.66	1.7159779	0.1243219	0.01390026	1.0232788	0.039317805	0.11367712	1.565908	0.090747565	-0.017057951	0.88086108	0.083749762	0.14024331	1.5844605	0.11945115	0.075854841	0.90953771	0.1208705	0.052303836	1.5215509	0.02827181	0.034753401	0.81383045	0.0811682	0.084703526	1.4226918	0.48382698	-0.058051474	1.1088752	0.48579241	0.21547269	1.4231615	0.47794366	0.067980401	1.1026508	0.4796283	0.088376028	1.2404459	0.85656812	-0.1011412	1.1792267	0.88257661	0.26695148	1.3049544	0.9514113	-0.03718316	1.2922489	0.96200214	0.20408648	1.1280431	1.0021806	0.063265122	1.251834	1.4074733	-0.098527854	1.2460615	1.4213615	0.23343905	1.1800841	1.4605683	0.068442037	1.0974395	1.0729212	-0.15234556	1.1571876	1.0628067	0.33448229	1.2102029	0.83980442	-0.20339997	1.3674454	0.88217185	0.32457782
417	1.664	1.7196361	0.12005869	0.014538402	1.0234363	0.039330397	0.11381247	1.5691382	0.088438248	-0.016925732	0.88180195	0.085411128	0.14078566	1.5877227	0.11675119	0.076103633	0.91081757	0.12229335	0.052836412	1.5238121	0.026496476	0.034544085	0.81467779	0.083733155	0.085283772	1.4303516	0.48317204	-0.057867242	1.1147479	0.48472993	0.21592531	1.4312164	0.47785487	0.068136133	1.1089065	0.47843123	0.088972105	1.2468876	0.85575811	-0.10184502	1.1857792	0.88144967	0.26640433	1.3117145	0.95050157	-0.037502745	1.2985535	0.96083184	0.2038828	1.1345362	1.0009413	0.062615158	1.2574341	1.4064383	-0.098885659	1.2511934	1.4202061	0.23314272	1.1854031	1.4593638	0.067998166	1.1037488	1.0715828	-0.15283186	1.1624331	1.0616314	0.33385234	1.2165916	0.83854156	-0.20374683	1.3721408	0.88047341	0.32504135
418	1.668	1.7229257	0.11558666	0.015311368	1.0236256	0.039382604	0.1139541	1.572079	0.08603233	-0.016781053	0.88281519	0.087170843	0.14131365	1.5905409	0.11390593	0.076388992	0.91222445	0.12381241	0.053379344	1.525555	0.024797816	0.034204113	0.81562702	0.08644083	0.085822529	1.4381062	0.48248838	-0.05772594	1.1211316	0.48383938	0.21670036	1.4391784	0.47774746	0.068241206	1.1157209	0.47707116	0.089948307	1.2533335	0.85498284	-0.10251225	1.1927494	0.88025397	0.26581922	1.3185653	0.94964446	-0.03783902	1.3049083	0.95967124	0.20366721	1.1410909	0.99972056	0.061980242	1.2630631	1.4054315	-0.099252497	1.2563254	1.4190739	0.23282149	1.1907165	1.4581497	0.067540704	1.1100915	1.070259	-0.1533303	1.1676426	1.0604973	0.33320351	1.2230234	0.83732424	-0.20408057	1.3767813	0.87878658	0.32551537
419	1.672	1.7259363	0.11079231	0.016200177	1.0238548	0.039485259	0.11409319	1.5747971	0.083575641	-0.016520821	0.88391388	0.089043631	0.14182312	1.5930198	0.11103755	0.076806422	0.91376357	0.1254193	0.053928072	1.5268184	0.02335333	0.033892126	0.8166917	0.089294909	0.08632434	1.4459469	0.481782	-0.057635897	1.1280432	0.48310317	0.21777794	1.4470754	0.47761174	0.06825809	1.1226896	0.47565416	0.091014468	1.2598232	0.85421377	-0.10313303	1.1997836	0.87906173	0.26522699	1.3254944	0.94881778	-0.038174074	1.3113334	0.95852077	0.20343709	1.1477178	0.99851349	0.061388284	1.2687218	1.4044476	-0.099634067	1.2614585	1.4179629	0.23246597	1.1960211	1.4569274	0.067070061	1.1164698	1.0689539	-0.15383133	1.1727758	1.0594089	0.33253898	1.2295031	0.83614157	-0.20440964	1.3813709	0.87710492	0.32599932
420	1.676	1.7288651	0.10545253	0.01715407	1.0241303	0.03963782	0.11421777	1.5774031	0.081201945	-0.016038317	0.88511369	0.091049151	0.14231888	1.5953919	0.1083599	0.077438157	0.91543728	0.12710347	0.054484538	1.5277519	0.022408683	0.033833231	0.81788495	0.092298704	0.086794833	1.4537597	0.48105345	-0.057605104	1.1351027	0.48226478	0.21889149	1.4548777	0.47741273	0.068156203	1.129315	0.4742906	0.091765929	1.2664016	0.85343346	-0.10371759	1.206516	0.87794375	0.26465412	1.3324706	0.94800558	-0.038483618	1.3177956	0.95738784	0.20320114	1.154402	0.9973295	0.060850382	1.2744076	1.4034832	-0.10003677	1.2665979	1.4168724	0.23207482	1.2013183	1.4557158	0.066586613	1.1228799	1.0676728	-0.15433797	1.1777726	1.0583498	0.33183936	1.2360362	0.83497847	-0.2047395	1.3859228	0.87542582	0.32649069
